<svg xmlns="http://www.w3.org/2000/svg" viewBox="0 0 32 32" width="32" height="32"><circle cx="16" cy="16" r="16" fill="#1da1f2"/><path d="M25 10.5c-.7.3-1.4.5-2.1.6.8-.5 1.3-1.2 1.6-2-.7.4-1.5.7-2.3.9-.7-.7-1.6-1.1-2.6-1.1-2 0-3.5 1.6-3.5 3.5 0 .3 0 .6.1.9-2.9-.1-5.5-1.5-7.2-3.7-.3.6-.5 1.2-.5 1.9 0 1.3.7 2.4 1.7 3-.6 0-1.2-.2-1.7-.5v.1c0 1.8 1.3 3.3 3.1 3.6-.3.1-.6.2-.9.2-.2 0-.4 0-.6-.1.4 1.3 1.6 2.2 3 2.2-1.1.9-2.5 1.4-4 1.4-.3 0-.6 0-.8-.1 1.4.9 3.1 1.5 4.9 1.5 5.9 0 9.1-4.9 9.1-9.1v-.4c.6-.4 1.2-1 1.6-1.6z" fill="#fff"/></svg>
